<svg width="39" height="62" viewBox="0 0 39 62" fill="none" xmlns="http://www.w3.org/2000/svg">
<path d="M39 19.5C39 24.6717 36.9455 29.6316 33.2886 33.2886C29.6316 36.9456 24.6717 39 19.5 39C14.3283 39 9.36838 36.9456 5.71142 33.2886C2.05446 29.6316 0 24.6717 0 19.5C0 14.3283 2.05446 9.3684 5.71142 5.71144C9.36838 2.05448 14.3283 0 19.5 0C24.6717 0 29.6316 2.05448 33.2886 5.71144C36.9455 9.3684 39 14.3283 39 19.5ZM37.6386 19.4721C37.6386 17.0892 37.1692 14.7296 36.2573 12.5281C35.3454 10.3266 34.0088 8.32623 32.3239 6.64126C30.6389 4.95629 28.6385 3.61971 26.437 2.70781C24.2355 1.79591 21.8759 1.32655 19.493 1.32655C14.6805 1.32655 10.0651 3.23831 6.66219 6.64126C3.25924 10.0442 1.34747 14.6596 1.34747 19.4721C1.34747 24.2846 3.25924 28.9 6.66219 32.3029C10.0651 35.7059 14.6805 37.6176 19.493 37.6176C21.8759 37.6176 24.2355 37.1483 26.437 36.2364C28.6385 35.3245 30.6389 33.9879 32.3239 32.3029C34.0088 30.6179 35.3454 28.6176 36.2573 26.4161C37.1692 24.2146 37.6386 21.855 37.6386 19.4721Z" fill="#489339"/>
<path d="M14.5217 50.0174C14.5217 50.3878 14.3746 50.743 14.1127 51.0048C13.8509 51.2667 13.4957 51.4138 13.1254 51.4138C12.755 51.4138 12.3998 51.2667 12.138 51.0048C11.8761 50.743 11.729 50.3878 11.729 50.0174C11.729 49.6471 11.8761 49.292 12.138 49.0301C12.3998 48.7682 12.755 48.6211 13.1254 48.6211C13.4957 48.6211 13.8509 48.7682 14.1127 49.0301C14.3746 49.292 14.5217 49.6471 14.5217 50.0174Z" fill="#489339"/>
<path d="M22.9919 60.9228C22.9914 60.9934 22.9771 61.0632 22.9496 61.1282C22.9221 61.1933 22.8821 61.2522 22.8318 61.3018C22.7815 61.3514 22.722 61.3905 22.6566 61.4171C22.5912 61.4437 22.5212 61.4571 22.4506 61.4566L21.5011 61.45C21.3586 61.449 21.2222 61.3914 21.1221 61.2899C21.022 61.1883 20.9663 61.0512 20.9673 60.9087L21.0498 49.0958C21.0502 49.0252 21.0647 48.9554 21.0921 48.8904C21.1196 48.8254 21.1596 48.7664 21.2099 48.7168C21.2601 48.6672 21.3197 48.628 21.3851 48.6015C21.4505 48.5749 21.5205 48.5615 21.5911 48.562L22.5406 48.5686C22.6831 48.5696 22.8195 48.6272 22.9196 48.7287C23.0197 48.8302 23.0754 48.9674 23.0744 49.1099L22.9919 60.9228Z" fill="#489339"/>
<path d="M32.053 49.8077C32.053 50.1688 31.9095 50.5151 31.6542 50.7704C31.3989 51.0257 31.0526 51.1692 30.6915 51.1692C30.3305 51.1692 29.9842 51.0257 29.7289 50.7704C29.4735 50.5151 29.3301 50.1688 29.3301 49.8077C29.3301 49.629 29.3653 49.4519 29.4337 49.2867C29.5021 49.1216 29.6024 48.9715 29.7289 48.8451C29.8553 48.7186 30.0053 48.6183 30.1705 48.5499C30.3357 48.4815 30.5127 48.4463 30.6915 48.4463C31.0526 48.4463 31.3989 48.5897 31.6542 48.8451C31.9095 49.1004 32.053 49.4467 32.053 49.8077Z" fill="#489339"/>
</svg>
