<svg width="107" height="86" viewBox="0 0 107 86" fill="none" xmlns="http://www.w3.org/2000/svg">
<path d="M58.4528 70.2466L53.9411 70.5248L44.5733 69.3232C44.3303 69.2952 44.0848 69.3474 43.8742 69.4719C43.6636 69.5965 43.4994 69.7865 43.4065 70.013L37.2724 85.0878C37.1707 85.3379 36.9815 85.5424 36.7403 85.6632C36.499 85.784 36.2221 85.8128 35.9612 85.7442L35.6056 85.6441C35.4535 85.6035 35.3117 85.531 35.1897 85.4315C35.0677 85.3319 34.9682 85.2075 34.8978 85.0666C34.8274 84.9257 34.7878 84.7714 34.7814 84.6139C34.7751 84.4565 34.8022 84.2995 34.861 84.1533L40.984 69.0562C41.0914 68.7941 41.0949 68.5008 40.9937 68.2361C40.8926 67.9715 40.6943 67.7555 40.4395 67.6322L36.0056 65.5184C35.7669 65.4062 35.4961 65.3826 35.2416 65.4519C34.9872 65.5212 34.7656 65.6788 34.6166 65.8967L26.8823 77.1443C26.7935 77.2713 26.6794 77.3785 26.5472 77.4593C26.415 77.54 26.2676 77.5924 26.1141 77.6133C25.9607 77.6342 25.8046 77.6231 25.6557 77.5807C25.5068 77.5383 25.3682 77.4655 25.2488 77.3668L24.8709 77.0442C24.6529 76.8635 24.512 76.6063 24.4769 76.3252C24.4418 76.044 24.5151 75.76 24.682 75.5312L32.5052 64.8397C32.6621 64.6226 32.7361 64.3568 32.7137 64.091C32.6912 63.8253 32.5738 63.5776 32.383 63.3935L29.0937 60.1449C28.8997 59.9552 28.6423 59.8438 28.3701 59.8315C28.0979 59.8192 27.8296 59.9069 27.6157 60.0781L15.392 69.924C15.2456 70.0428 15.0719 70.1224 14.8873 70.1555C14.7026 70.1886 14.513 70.174 14.3363 70.1131C12.4472 69.479 13.3584 68.0995 14.4364 67.2984C18.4368 64.3539 22.3299 61.2759 26.1155 58.0644C26.3358 57.8811 26.4752 57.6182 26.5043 57.3315C26.5333 57.0448 26.4497 56.757 26.2711 56.5291C24.0486 53.7256 22.3151 50.6438 21.0705 47.284C20.9742 47.0287 20.7902 46.8167 20.553 46.6877C20.3158 46.5588 20.0415 46.5216 19.7814 46.5831L3.72395 50.2878C3.51547 50.3372 3.29754 50.3257 3.09644 50.2546C2.89533 50.1836 2.71961 50.056 2.59048 49.8873C1.76075 48.8045 2.14599 48.0739 3.74618 47.6956C8.71715 46.5312 13.6955 45.3371 18.6813 44.1133C18.9435 44.0501 19.1733 43.8916 19.3269 43.6681C19.4806 43.4445 19.5474 43.1714 19.5148 42.9006L19.0147 38.7509C18.9814 38.4737 18.8452 38.2191 18.6332 38.0378C18.4212 37.8564 18.1488 37.7615 17.8701 37.7719C12.6991 37.9499 7.54664 38.1093 2.41269 38.2502C1.06808 38.2947 -0.887711 37.8609 0.445783 36.0474C0.54565 35.9094 0.676873 35.7964 0.829181 35.7173C0.981489 35.6381 1.15074 35.595 1.32366 35.5913L17.9146 35.3799C18.1925 35.3749 18.4585 35.2647 18.6601 35.0711C18.8617 34.8775 18.9842 34.6145 19.0036 34.3341L19.2925 30.1621C19.3101 29.8974 19.2335 29.6353 19.0766 29.4232C18.9197 29.211 18.6928 29.0627 18.4368 29.0051C13.6585 27.9 8.89124 26.8542 4.13511 25.8678C2.8794 25.6008 0.845835 24.4437 2.84608 23.2088C2.96888 23.1316 3.10599 23.0799 3.24919 23.057C3.3924 23.0341 3.53876 23.0403 3.67951 23.0753L18.9925 26.7244C19.2675 26.7879 19.5564 26.7453 19.8014 26.6051C20.0465 26.4649 20.2298 26.2374 20.3148 25.9679C27.6268 2.6715 54.5745 -8.18681 74.9214 7.07712C81.137 11.7423 85.456 18.0726 87.8785 26.068C87.9635 26.3467 88.1542 26.5809 88.4098 26.7203C88.6654 26.8597 88.9654 26.8931 89.2454 26.8134C93.5496 25.5896 97.7982 24.377 101.991 23.1754C105.27 22.2298 106.659 24.733 103.18 25.6008C98.6169 26.7356 94.0682 27.8852 89.5343 29.0496C89.284 29.1163 89.0649 29.2684 88.9148 29.4797C88.7646 29.6909 88.6929 29.9481 88.712 30.2066L89.012 34.6234C89.0289 34.9019 89.1507 35.1636 89.3528 35.3556C89.555 35.5476 89.8224 35.6557 90.101 35.658L105.903 35.8361C106.059 35.8379 106.213 35.8729 106.354 35.9388C106.496 36.0047 106.622 36.1001 106.725 36.2187C106.828 36.3372 106.905 36.4764 106.951 36.6271C106.997 36.7778 107.011 36.9366 106.992 37.0932L106.936 37.5382C106.901 37.8137 106.762 38.0657 106.548 38.2448C106.335 38.4239 106.061 38.5171 105.781 38.5061L90.101 37.7719C89.8277 37.7599 89.5595 37.8482 89.3467 38.0203C89.1338 38.1924 88.9911 38.4364 88.9453 38.7064L88.2675 42.8784C88.2255 43.148 88.285 43.4239 88.4346 43.6536C88.5842 43.8834 88.8134 44.0509 89.0787 44.1244L104.236 48.3075C104.383 48.3472 104.519 48.4172 104.638 48.513C104.756 48.6088 104.853 48.7284 104.923 48.8643C104.993 49.0001 105.034 49.1493 105.044 49.3024C105.054 49.4555 105.032 49.6092 104.981 49.7538L104.881 50.0208C104.787 50.2818 104.598 50.4977 104.351 50.6256C104.104 50.7534 103.817 50.7838 103.547 50.7106L88.4119 46.572C88.1755 46.5085 87.9249 46.5242 87.6982 46.6166C87.4715 46.709 87.2812 46.873 87.1562 47.0837L81.3889 56.963C81.2546 57.1897 81.2043 57.4562 81.247 57.715C81.2898 57.9737 81.4227 58.208 81.6222 58.3759C85.3264 61.5059 89.0379 64.6024 92.7569 67.6656C93.857 68.5667 94.9127 70.5693 92.4013 70.5693C92.1358 70.5689 91.8757 70.4702 91.6679 70.2911L80.0443 60.1115C79.8363 59.9297 79.5695 59.8303 79.2948 59.8324C79.0201 59.8344 78.7568 59.9377 78.5552 60.1226L75.2881 63.1487C75.0925 63.3275 74.9671 63.5703 74.9345 63.8334C74.902 64.0965 74.9643 64.3627 75.1103 64.5839L82.489 75.5757C82.5709 75.6969 82.6281 75.833 82.6573 75.9764C82.6866 76.1198 82.6873 76.2676 82.6594 76.4112C82.6316 76.5549 82.5757 76.6916 82.4949 76.8136C82.4142 76.9356 82.3102 77.0404 82.1889 77.1221L81.6889 77.467C81.5654 77.5492 81.4268 77.6058 81.2811 77.6335C81.1355 77.6612 80.9857 77.6595 80.8408 77.6284C80.6958 77.5973 80.5585 77.5374 80.437 77.4524C80.3154 77.3674 80.2122 77.2589 80.1332 77.1332L73.1212 66.0635C72.9787 65.8315 72.7544 65.661 72.4917 65.585C72.229 65.5089 71.9466 65.5328 71.6988 65.6519L67.1094 67.8547C66.8603 67.9729 66.665 68.1814 66.5621 68.439C66.4592 68.6965 66.4562 68.9843 66.5537 69.2454C68.3465 74.0589 70.1838 78.8206 72.0655 83.5303C72.5878 84.8431 72.3989 86.3895 70.6098 85.9111C70.435 85.8665 70.274 85.7815 70.1405 85.6634C70.007 85.5452 69.9049 85.3974 69.843 85.2325L64.1979 70.0575C64.1049 69.8092 63.9273 69.6021 63.697 69.4736C63.4668 69.345 63.1991 69.3036 62.9422 69.3566L58.4528 70.2466Z" fill="#7BC66C"/>
</svg>
