<svg width="25" height="18" viewBox="0 0 25 18" fill="none" xmlns="http://www.w3.org/2000/svg">
<path d="M21.274 15C22.0233 15 22.6192 14.5285 23.1544 13.8691C24.2498 12.5194 22.4512 11.4408 21.7653 10.9126C21.0679 10.3756 20.2893 10.0714 19.4999 10M18.4999 8C19.8806 8 20.9999 6.88071 20.9999 5.5C20.9999 4.11929 19.8806 3 18.4999 3" stroke="#141B34" stroke-width="1.5" stroke-linecap="round"/>
<path d="M3.72589 15C2.97659 15 2.3806 14.5285 1.84548 13.8691C0.750018 12.5194 2.5486 11.4408 3.23457 10.9126C3.9319 10.3756 4.71051 10.0714 5.49993 10M5.99993 8C4.61922 8 3.49993 6.88071 3.49993 5.5C3.49993 4.11929 4.61922 3 5.99993 3" stroke="#141B34" stroke-width="1.5" stroke-linecap="round"/>
<path d="M8.5837 12.1112C7.56192 12.743 4.88288 14.0331 6.51459 15.6474C7.31167 16.436 8.19942 17 9.31552 17H15.6843C16.8004 17 17.6881 16.436 18.4852 15.6474C20.1169 14.0331 17.4379 12.743 16.4161 12.1112C14.02 10.6296 10.9798 10.6296 8.5837 12.1112Z" stroke="#141B34" stroke-width="1.5" stroke-linecap="round" stroke-linejoin="round"/>
<path d="M15.9999 4.5C15.9999 6.433 14.4329 8 12.4999 8C10.5669 8 8.9999 6.433 8.9999 4.5C8.9999 2.567 10.5669 1 12.4999 1C14.4329 1 15.9999 2.567 15.9999 4.5Z" stroke="#141B34" stroke-width="1.5"/>
</svg>
