<svg width="20" height="20" viewBox="0 0 20 20" fill="none" xmlns="http://www.w3.org/2000/svg">
<path d="M10 1.875C5.51289 1.875 1.875 5.51289 1.875 10C1.875 14.4871 5.51289 18.125 10 18.125C14.4871 18.125 18.125 14.4871 18.125 10C18.125 5.51289 14.4871 1.875 10 1.875Z" stroke="white" stroke-width="1.25" stroke-miterlimit="10"/>
<path d="M10.0008 1.875C7.73242 1.875 5.59961 5.51289 5.59961 10C5.59961 14.4871 7.73242 18.125 10.0008 18.125C12.2691 18.125 14.402 14.4871 14.402 10C14.402 5.51289 12.2691 1.875 10.0008 1.875Z" stroke="white" stroke-width="1.25" stroke-miterlimit="10"/>
<path d="M4.58398 4.58325C6.07773 5.6438 7.9582 6.27622 10.0008 6.27622C12.0434 6.27622 13.9238 5.6438 15.4176 4.58325" stroke="white" stroke-width="1.25" stroke-linecap="round" stroke-linejoin="round"/>
<path d="M15.4176 15.4168C13.9238 14.3563 12.0434 13.7239 10.0008 13.7239C7.9582 13.7239 6.07773 14.3563 4.58398 15.4168" stroke="white" stroke-width="1.25" stroke-linecap="round" stroke-linejoin="round"/>
<path d="M10 1.875V18.125" stroke="white" stroke-width="1.25" stroke-miterlimit="10"/>
<path d="M18.125 10H1.875" stroke="white" stroke-width="1.25" stroke-miterlimit="10"/>
</svg>
