<svg width="24" height="24" viewBox="0 0 24 24" fill="none" xmlns="http://www.w3.org/2000/svg">
<path d="M6.59964 11.923C11.6723 2.46869 17.9886 2.35967 20.5127 3.48695C21.64 6.01105 21.531 12.3274 12.0767 17.4C11.9787 16.8364 11.4334 15.3599 10.0366 13.9631C8.63976 12.5663 7.16328 12.021 6.59964 11.923Z" stroke="white" stroke-width="1.5" stroke-linecap="round" stroke-linejoin="round"/>
<path d="M13.3496 16.95C15.1881 17.85 15.3844 19.4638 15.6391 21C15.6391 21 19.4898 18.1535 17.0267 14.25" stroke="white" stroke-width="1.5" stroke-linecap="round" stroke-linejoin="round"/>
<path d="M7.04999 10.7269C6.14999 8.88844 4.53618 8.69215 3.00003 8.43746C3.00003 8.43746 5.84653 4.58682 9.75 7.04993" stroke="white" stroke-width="1.5" stroke-linecap="round" stroke-linejoin="round"/>
<path d="M6.01811 14.9113C5.50628 15.4231 4.63616 16.9074 5.25036 18.75C7.09296 19.3642 8.57729 18.4941 9.08912 17.9823" stroke="white" stroke-width="1.5" stroke-linecap="round" stroke-linejoin="round"/>
<path d="M17.3008 8.45007C17.3008 7.48357 16.5173 6.70007 15.5508 6.70007C14.5843 6.70007 13.8008 7.48357 13.8008 8.45007C13.8008 9.41657 14.5843 10.2001 15.5508 10.2001C16.5173 10.2001 17.3008 9.41657 17.3008 8.45007Z" stroke="white" stroke-width="1.5"/>
</svg>
