<svg width="101" height="100" viewBox="0 0 101 100" fill="none" xmlns="http://www.w3.org/2000/svg">
<path d="M27.9985 49.6791C49.1345 10.2862 75.4527 9.83198 85.9697 14.529C90.6667 25.046 90.2125 51.3642 50.8196 72.5002C50.4111 70.1517 48.1392 63.9997 42.3191 58.1796C36.499 52.3595 30.347 50.0876 27.9985 49.6791Z" stroke="#1A1A1A" stroke-width="4" stroke-linecap="round" stroke-linejoin="round"/>
<path d="M56.1235 70.625C63.784 74.375 64.6019 81.0993 65.663 87.4999C65.663 87.4999 81.7074 75.6394 71.4444 59.375" stroke="#1A1A1A" stroke-width="4" stroke-linecap="round" stroke-linejoin="round"/>
<path d="M29.875 44.6955C26.125 37.035 19.4008 36.2172 13.0002 35.156C13.0002 35.156 24.8606 19.1116 41.125 29.3746" stroke="#1A1A1A" stroke-width="4" stroke-linecap="round" stroke-linejoin="round"/>
<path d="M25.5755 62.1303C23.4429 64.263 19.8174 70.4476 22.3766 78.1252C30.0541 80.6843 36.2387 77.0588 38.3714 74.9262" stroke="#1A1A1A" stroke-width="4" stroke-linecap="round" stroke-linejoin="round"/>
<path d="M72.5868 35.2086C72.5868 31.1815 69.3222 27.9169 65.2951 27.9169C61.268 27.9169 58.0034 31.1815 58.0034 35.2086C58.0034 39.2357 61.268 42.5002 65.2951 42.5002C69.3222 42.5002 72.5868 39.2357 72.5868 35.2086Z" stroke="#1A1A1A" stroke-width="4"/>
</svg>
