<svg width="208" height="33" viewBox="0 0 208 33" fill="none" xmlns="http://www.w3.org/2000/svg">
<g clip-path="url(#clip0_17_1142)">
<path d="M116.768 27.9797H121.198V11.311H116.768V27.9797ZM116.768 8.71165H121.198V4.74756H116.768V8.71165Z" fill="white"/>
<path d="M124.053 33.439H128.483V26.0957H128.547C129.491 27.5254 131.023 28.4677 133.368 28.4677C137.667 28.4677 140.599 25.056 140.599 19.6622C140.599 14.4634 137.765 10.8567 133.335 10.8567C131.055 10.8567 129.491 11.929 128.417 13.3911H128.319V11.3116H124.053V33.439ZM132.423 24.796C129.785 24.796 128.385 22.814 128.385 19.7922C128.385 16.8028 129.491 14.4309 132.261 14.4309C134.997 14.4309 136.104 16.6404 136.104 19.7922C136.104 22.9439 134.671 24.796 132.423 24.796Z" fill="white"/>
<path d="M149.436 28.4677C153.605 28.4677 156.472 26.4532 156.472 23.1064C156.472 19.2073 153.377 18.4275 150.576 17.8427C148.198 17.3553 145.983 17.2252 145.983 15.7956C145.983 14.5934 147.123 13.9435 148.849 13.9435C150.739 13.9435 151.879 14.5934 152.074 16.3805H156.08C155.755 13.0337 153.312 10.8567 148.915 10.8567C145.103 10.8567 142.107 12.5788 142.107 16.1855C142.107 19.8247 145.039 20.637 148.035 21.2219C150.315 21.6768 152.432 21.8392 152.432 23.4313C152.432 24.6011 151.325 25.3484 149.371 25.3484C147.384 25.3484 146.016 24.5036 145.723 22.5866H141.619C141.879 26.1282 144.583 28.4677 149.436 28.4677Z" fill="white"/>
<path d="M173.29 27.9805V11.3118H168.86V20.9296C168.86 23.1391 167.59 24.6987 165.505 24.6987C163.616 24.6987 162.737 23.6265 162.737 21.677V11.3118H158.339V22.4242C158.339 26.0634 160.424 28.4354 164.137 28.4354C166.483 28.4354 167.785 27.5581 168.925 26.031H169.023V27.9805H173.29Z" fill="white"/>
<path d="M176.155 27.9803H180.585V18.2976C180.585 16.088 181.791 14.6584 183.583 14.6584C185.211 14.6584 186.155 15.6331 186.155 17.5177V27.9803H190.585V18.2976C190.585 16.088 191.725 14.6584 193.582 14.6584C195.211 14.6584 196.155 15.6331 196.155 17.5177V27.9803H200.585V16.7703C200.585 13.1312 198.598 10.8567 195.08 10.8567C192.963 10.8567 191.204 11.9614 190.064 13.781H189.999C189.185 12.0264 187.491 10.8567 185.373 10.8567C183.061 10.8567 181.433 12.0264 180.521 13.5536H180.423V11.3116H176.155V27.9803Z" fill="white"/>
<path d="M1.30956 27.9797H5.73942V4.74756H1.30956V27.9797Z" fill="white"/>
<path d="M16.571 28.4677C21.75 28.4677 25.3003 24.6336 25.3003 19.6622C25.3003 14.6908 21.75 10.8567 16.571 10.8567C11.3919 10.8567 7.84148 14.6908 7.84148 19.6622C7.84148 24.6336 11.3919 28.4677 16.571 28.4677ZM16.571 25.0885C13.8349 25.0885 12.3365 22.9114 12.3365 19.6622C12.3365 16.413 13.8349 14.2035 16.571 14.2035C19.2745 14.2035 20.8054 16.413 20.8054 19.6622C20.8054 22.9114 19.2745 25.0885 16.571 25.0885Z" fill="white"/>
<path d="M34.7211 33.6665C37.1966 33.6665 39.3464 33.0817 40.7469 31.7819C41.9847 30.6447 42.7339 29.0525 42.7339 26.7131V11.3116H38.4669V13.0663H38.4018C37.392 11.6691 35.8611 10.8567 33.7764 10.8567C29.5421 10.8567 26.5454 14.041 26.5454 19.0123C26.5454 24.0487 30.1935 26.973 33.9068 26.973C36.0239 26.973 37.2943 26.1282 38.2714 25.0235H38.3692V26.8431C38.3692 29.1175 37.164 30.3198 34.6559 30.3198C32.6038 30.3198 31.6592 29.5074 31.3009 28.4677H26.9036C27.3596 31.717 30.1609 33.6665 34.7211 33.6665ZM34.6559 23.4313C32.3758 23.4313 30.8775 21.7742 30.8775 18.9474C30.8775 16.153 32.3758 14.3984 34.6233 14.3984C37.2943 14.3984 38.5972 16.478 38.5972 18.9149C38.5972 21.3843 37.4572 23.4313 34.6559 23.4313Z" fill="white"/>
<path d="M53.5013 28.4677C58.6803 28.4677 62.2308 24.6336 62.2308 19.6622C62.2308 14.6908 58.6803 10.8567 53.5013 10.8567C48.3223 10.8567 44.7718 14.6908 44.7718 19.6622C44.7718 24.6336 48.3223 28.4677 53.5013 28.4677ZM53.5013 25.0885C50.7652 25.0885 49.2669 22.9114 49.2669 19.6622C49.2669 16.413 50.7652 14.2035 53.5013 14.2035C56.2048 14.2035 57.7358 16.413 57.7358 19.6622C57.7358 22.9114 56.2048 25.0885 53.5013 25.0885Z" fill="white"/>
<path d="M202.195 8.57358C202.195 7.82587 202.803 7.21973 203.552 7.21973H206.267C207.016 7.21973 207.624 7.82587 207.624 8.57358C207.624 9.3213 207.016 9.92745 206.267 9.92745H203.552C202.803 9.92745 202.195 9.3213 202.195 8.57358Z" fill="white"/>
<path fill-rule="evenodd" clip-rule="evenodd" d="M89.0959 0C99.5893 0 108.097 8.486 108.097 18.954C108.097 29.422 99.5893 37.908 89.0959 37.908C78.6021 37.908 70.0952 29.422 70.0952 18.954C70.0952 8.486 78.6021 0 89.0959 0ZM88.4091 1.41832C86.2414 1.72262 84.1774 3.46013 82.5751 6.36608C82.1104 7.20899 81.691 8.14023 81.3257 9.14572C83.5043 8.59959 85.8975 8.27761 88.4091 8.22781V1.41832ZM79.7197 9.60096C80.1742 8.17825 80.7301 6.86931 81.3716 5.70577C82.1659 4.26521 83.1085 3.02122 84.1705 2.06577C78.3954 3.73889 73.8433 8.27985 72.166 14.0408C73.1238 12.9814 74.3708 12.0411 75.815 11.2488C76.9814 10.6088 78.2935 10.0542 79.7197 9.60096ZM79.2634 11.2029C78.7159 13.3761 78.3932 15.7635 78.3432 18.2689H71.5169C71.822 16.1065 73.5638 14.0476 76.477 12.4494C77.3219 11.9857 78.2554 11.5674 79.2634 11.2029ZM79.7171 18.2689C79.7738 15.5347 80.1684 12.9678 80.8213 10.6997C83.0949 10.0485 85.6682 9.65479 88.4091 9.59821V12.5578C87.3866 15.1691 85.3011 17.2493 82.6832 18.2689H79.7171ZM78.3432 19.6391H71.5169C71.822 21.8015 73.5638 23.8603 76.477 25.4586C77.3219 25.9222 78.2554 26.3406 79.2634 26.7051C78.7159 24.5319 78.3932 22.1445 78.3432 19.6391ZM80.8213 27.2083C80.1684 24.9402 79.7738 22.3733 79.7171 19.6391H82.6832C85.3011 20.6587 87.3866 22.7389 88.4091 25.3502V28.3098C85.6682 28.2532 83.0949 27.8595 80.8213 27.2083ZM79.7197 28.307C78.2935 27.8538 76.9814 27.2992 75.815 26.6592C74.3708 25.8669 73.1238 24.9266 72.166 23.8672C73.8433 29.6281 78.3954 34.1691 84.1705 35.8422C83.1085 34.8867 82.1659 33.6428 81.3716 32.2022C80.7301 31.0387 80.1742 29.7297 79.7197 28.307ZM88.4091 36.4897C86.2414 36.1854 84.1774 34.4478 82.5751 31.5419C82.1104 30.699 81.691 29.7677 81.3257 28.7623C83.5043 29.3084 85.8975 29.6304 88.4091 29.6802V36.4897ZM94.0211 35.8422C95.0832 34.8867 96.0257 33.6428 96.8199 32.2022C97.4612 31.0387 98.0179 29.7297 98.472 28.307C99.898 27.8538 101.21 27.2992 102.377 26.6592C103.821 25.8669 105.068 24.9266 106.026 23.8672C104.348 29.6281 99.7964 34.1691 94.0211 35.8422ZM96.8665 28.7623C96.5007 29.7677 96.0808 30.699 95.6162 31.5419C94.0143 34.4478 91.9502 36.1854 89.7826 36.4897V29.6802C92.2942 29.6304 94.6874 29.3084 96.8665 28.7623ZM98.928 26.7051C99.936 26.3406 100.87 25.9222 101.714 25.4586C104.628 23.8604 106.37 21.8015 106.675 19.6391H99.8486C99.7983 22.1445 99.4753 24.5319 98.928 26.7051ZM98.4749 19.6391C98.4179 22.3733 98.0236 24.9402 97.37 27.2083C95.0968 27.8595 92.5235 28.2532 89.7826 28.3098V25.3524C90.8048 22.7402 92.8908 20.659 95.5093 19.6391H98.4749ZM99.8486 18.2689H106.675C106.37 16.1065 104.628 14.0476 101.714 12.4494C100.87 11.9857 99.936 11.5674 98.928 11.2029C99.4753 13.3761 99.7983 15.7635 99.8486 18.2689ZM97.37 10.6997C98.0236 12.9678 98.4179 15.5347 98.4749 18.2689H95.5094C92.8908 17.249 90.8048 15.1678 89.7826 12.5556V9.59821C92.5235 9.65479 95.0968 10.0485 97.37 10.6997ZM98.472 9.60096C99.898 10.0542 101.21 10.6088 102.377 11.2488C103.821 12.0411 105.068 12.9814 106.026 14.0408C104.348 8.27985 99.7964 3.73889 94.0211 2.06577C95.0832 3.02122 96.0257 4.26521 96.8199 5.70577C97.4612 6.86931 98.0179 8.17825 98.472 9.60096ZM89.7826 1.41832C91.9502 1.72262 94.0143 3.46013 95.6162 6.36608C96.0808 7.209 96.5007 8.14023 96.8665 9.14572C94.6874 8.59959 92.2942 8.27761 89.7826 8.22781V1.41832Z" fill="white"/>
</g>
<defs>
<clipPath id="clip0_17_1142">
<rect width="207.107" height="37.908" fill="white" transform="translate(0.526566)"/>
</clipPath>
</defs>
</svg>
