<svg width="188" height="33" viewBox="0 0 188 33" fill="none" xmlns="http://www.w3.org/2000/svg">
<g clip-path="url(#clip0_17_1154)">
<path d="M28.5512 28.3459H38.2474L14.2279 1.21704H4.53165L28.5512 28.3459Z" fill="#7476ED"/>
<path d="M19.2094 1.21704L42.3638 27.3687V1.21704H36.0978V9.47361L28.7875 1.21704L19.2094 1.21704Z" fill="#E56F8C"/>
<path d="M0.472595 2.12549V28.346H6.73856V20.0894L14.0488 28.346H23.688L0.472595 2.12549Z" fill="#64C2DB"/>
<path d="M57.4845 24.2673H63.0987V28.004H53.1985V8.13159H57.4845V24.2673Z" fill="white"/>
<path d="M70.7574 28.2307C69.3872 28.2307 68.1506 27.9004 67.0479 27.2398C65.9617 26.5793 65.1013 25.6357 64.4663 24.4091C63.8481 23.1823 63.539 21.748 63.539 20.1061C63.539 18.4832 63.8563 17.0583 64.4914 15.8316C65.1264 14.586 65.9952 13.633 67.098 12.9725C68.2008 12.312 69.4373 11.9817 70.8074 11.9817C72.1776 11.9817 73.4141 12.312 74.5169 12.9725C75.6197 13.633 76.4885 14.586 77.1235 15.8316C77.7585 17.0583 78.0759 18.4832 78.0759 20.1061C78.0759 21.7291 77.7502 23.1634 77.0984 24.4091C76.4636 25.6357 75.5862 26.5793 74.4667 27.2398C73.364 27.9004 72.1274 28.2307 70.7574 28.2307ZM70.7574 24.041C71.5761 24.041 72.2696 23.7013 72.8376 23.0219C73.4224 22.3425 73.7148 21.3707 73.7148 20.1061C73.7148 18.8417 73.4308 17.8698 72.8627 17.1904C72.3113 16.511 71.6262 16.1713 70.8074 16.1713C69.972 16.1713 69.2785 16.511 68.7272 17.1904C68.1757 17.8509 67.9001 18.8229 67.9001 20.1061C67.9001 21.3707 68.1674 22.3425 68.7021 23.0219C69.2535 23.7013 69.9386 24.041 70.7574 24.041Z" fill="white"/>
<path d="M84.9113 11.9817C85.8972 11.9817 86.7578 12.2082 87.493 12.6611C88.2449 13.114 88.8213 13.7085 89.2224 14.4445V12.2082H93.5083V27.9759C93.5083 29.4291 93.2492 30.7406 92.7313 31.9107C92.23 33.0996 91.453 34.0432 90.4003 34.7415C89.3644 35.4398 88.0694 35.789 86.5155 35.789C84.4435 35.789 82.7643 35.2322 81.4776 34.1187C80.191 33.0241 79.4558 31.5333 79.272 29.646H83.5078C83.6415 30.25 83.959 30.7217 84.4602 31.0614C84.9616 31.42 85.5797 31.5993 86.315 31.5993C87.2006 31.5993 87.9023 31.3069 88.4204 30.7217C88.955 30.1556 89.2224 29.2403 89.2224 27.9759V25.7395C88.8046 26.4755 88.2281 27.0794 87.493 27.5513C86.7578 28.0041 85.8972 28.2307 84.9113 28.2307C83.7585 28.2307 82.7141 27.9004 81.7784 27.2398C80.8426 26.5604 80.0991 25.6075 79.5478 24.3807C79.0131 23.1352 78.7456 21.7009 78.7456 20.0779C78.7456 18.4549 79.0131 17.03 79.5478 15.8033C80.0991 14.5767 80.8426 13.633 81.7784 12.9725C82.7141 12.312 83.7585 11.9817 84.9113 11.9817ZM89.2224 20.1061C89.2224 18.8984 88.9216 17.9453 88.3201 17.247C87.7353 16.5487 87.0167 16.1996 86.1646 16.1996C85.3124 16.1996 84.5856 16.5487 83.9841 17.247C83.3991 17.9264 83.1067 18.87 83.1067 20.0779C83.1067 21.2857 83.3991 22.2481 83.9841 22.9653C84.5856 23.6636 85.3124 24.0127 86.1646 24.0127C87.0167 24.0127 87.7353 23.6636 88.3201 22.9653C88.9216 22.267 89.2224 21.314 89.2224 20.1061Z" fill="white"/>
<path d="M102.223 28.2307C100.853 28.2307 99.6167 27.9004 98.5138 27.2398C97.4277 26.5793 96.5672 25.6357 95.9323 24.4091C95.314 23.1823 95.0049 21.748 95.0049 20.1061C95.0049 18.4832 95.3224 17.0583 95.9573 15.8316C96.5923 14.586 97.4611 13.633 98.564 12.9725C99.6668 12.312 100.903 11.9817 102.273 11.9817C103.644 11.9817 104.88 12.312 105.983 12.9725C107.086 13.633 107.955 14.586 108.589 15.8316C109.224 17.0583 109.542 18.4832 109.542 20.1061C109.542 21.7291 109.216 23.1634 108.564 24.4091C107.929 25.6357 107.052 26.5793 105.933 27.2398C104.83 27.9004 103.593 28.2307 102.223 28.2307ZM102.223 24.041C103.042 24.041 103.735 23.7013 104.304 23.0219C104.888 22.3425 105.181 21.3707 105.181 20.1061C105.181 18.8417 104.897 17.8698 104.329 17.1904C103.777 16.511 103.092 16.1713 102.273 16.1713C101.438 16.1713 100.745 16.511 100.193 17.1904C99.6417 17.8509 99.366 18.8229 99.366 20.1061C99.366 21.3707 99.6334 22.3425 100.168 23.0219C100.719 23.7013 101.405 24.041 102.223 24.041Z" fill="white"/>
<path d="M113.219 10.5661C112.467 10.5661 111.849 10.3208 111.364 9.83012C110.897 9.32057 110.663 8.6978 110.663 7.96177C110.663 7.20689 110.897 6.5841 111.364 6.09343C111.849 5.58388 112.467 5.3291 113.219 5.3291C113.954 5.3291 114.556 5.58388 115.024 6.09343C115.508 6.5841 115.751 7.20689 115.751 7.96177C115.751 8.6978 115.508 9.32057 115.024 9.83012C114.556 10.3208 113.954 10.5661 113.219 10.5661ZM115.35 12.208V28.004H111.064V12.208H115.35Z" fill="white"/>
<path d="M121.989 14.4445C122.408 13.7085 122.984 13.114 123.719 12.6611C124.454 12.2082 125.315 11.9817 126.301 11.9817C127.454 11.9817 128.498 12.312 129.433 12.9725C130.37 13.633 131.105 14.5767 131.639 15.8033C132.191 17.03 132.467 18.4549 132.467 20.0779C132.467 21.7009 132.191 23.1352 131.639 24.3807C131.105 25.6075 130.37 26.5604 129.433 27.2398C128.498 27.9004 127.454 28.2307 126.301 28.2307C125.332 28.2307 124.471 28.0041 123.719 27.5513C122.984 27.0983 122.408 26.5133 121.989 25.7961V35.5342H117.704V12.2082H121.989V14.4445ZM128.105 20.0779C128.105 18.87 127.805 17.9264 127.203 17.247C126.619 16.5487 125.891 16.1996 125.023 16.1996C124.17 16.1996 123.444 16.5487 122.842 17.247C122.257 17.9453 121.965 18.8984 121.965 20.1061C121.965 21.314 122.257 22.267 122.842 22.9653C123.444 23.6636 124.17 24.0126 125.023 24.0126C125.875 24.0126 126.602 23.6636 127.203 22.9653C127.805 22.2481 128.105 21.2857 128.105 20.0779Z" fill="white"/>
<path d="M139.652 28.2307C138.432 28.2307 137.347 27.9948 136.395 27.5229C135.442 27.0512 134.69 26.4094 134.139 25.598C133.587 24.7677 133.278 23.8428 133.211 22.8237H137.448C137.497 23.3711 137.723 23.8146 138.124 24.1543C138.524 24.494 139.018 24.6638 139.603 24.6638C140.137 24.6638 140.546 24.5506 140.831 24.3241C141.132 24.0788 141.282 23.7673 141.282 23.39C141.282 22.937 141.072 22.6067 140.655 22.3991C140.237 22.1727 139.56 21.9273 138.625 21.6631C137.622 21.3989 136.787 21.1252 136.118 20.8422C135.45 20.5402 134.874 20.0779 134.389 19.4551C133.905 18.8135 133.662 17.9548 133.662 16.879C133.662 15.9731 133.88 15.1522 134.314 14.4161C134.765 13.6613 135.417 13.0668 136.269 12.6328C137.138 12.1987 138.165 11.9817 139.352 11.9817C141.106 11.9817 142.485 12.4724 143.487 13.4537C144.507 14.435 145.092 15.7373 145.242 17.3603H141.282C141.214 16.8129 140.997 16.3789 140.63 16.0581C140.279 15.7373 139.811 15.5769 139.227 15.5769C138.726 15.5769 138.341 15.69 138.073 15.9166C137.806 16.1241 137.673 16.4167 137.673 16.794C137.673 17.247 137.882 17.5867 138.299 17.8131C138.733 18.0397 139.402 18.2661 140.305 18.4925C141.34 18.7946 142.185 19.0965 142.836 19.3985C143.487 19.6815 144.056 20.1534 144.54 20.8139C145.042 21.4556 145.3 22.3236 145.317 23.4182C145.317 24.343 145.083 25.1734 144.615 25.9094C144.164 26.6266 143.504 27.1927 142.636 27.6078C141.783 28.023 140.789 28.2307 139.652 28.2307Z" fill="white"/>
<path d="M160.997 12.2075V28.0035H156.711V25.8522C156.277 26.5505 155.684 27.1166 154.932 27.5506C154.197 27.9658 153.378 28.1733 152.476 28.1733C151.406 28.1733 150.462 27.9092 149.643 27.3808C148.824 26.8334 148.19 26.0502 147.739 25.0311C147.288 24.012 147.062 22.8138 147.062 21.4361V12.2075H151.323V20.7849C151.323 21.8418 151.565 22.6627 152.049 23.2477C152.534 23.8329 153.186 24.1253 154.004 24.1253C154.84 24.1253 155.499 23.8329 155.985 23.2477C156.47 22.6627 156.711 21.8418 156.711 20.7849V12.2075H160.997Z" fill="white"/>
<path d="M181.169 12.0376C182.907 12.0376 184.286 12.6321 185.304 13.821C186.341 15.0099 186.859 16.6613 186.859 18.775V28.0034H182.597V19.426C182.597 18.4069 182.356 17.6238 181.871 17.0765C181.403 16.5103 180.752 16.2272 179.916 16.2272C179.08 16.2272 178.421 16.5103 177.936 17.0765C177.469 17.6238 177.235 18.4069 177.235 19.426V28.0034H172.973V19.426C172.973 18.4069 172.732 17.6238 172.247 17.0765C171.778 16.5103 171.127 16.2272 170.292 16.2272C169.456 16.2272 168.796 16.5103 168.311 17.0765C167.844 17.6238 167.61 18.4069 167.61 19.426V28.0034H163.324V12.2074H167.61V14.189C168.044 13.5285 168.612 13.0095 169.314 12.6321C170.016 12.2358 170.809 12.0376 171.695 12.0376C172.747 12.0376 173.684 12.2924 174.502 12.8019C175.338 13.3115 175.989 14.0381 176.457 14.9817C176.942 14.1135 177.602 13.4058 178.438 12.8585C179.273 12.3112 180.184 12.0376 181.169 12.0376Z" fill="white"/>
</g>
<defs>
<clipPath id="clip0_17_1154">
<rect width="186.766" height="36.9834" fill="white" transform="translate(0.472473)"/>
</clipPath>
</defs>
</svg>
