<svg width="192" height="33" viewBox="0 0 192 33" fill="none" xmlns="http://www.w3.org/2000/svg">
<g clip-path="url(#clip0_17_1167)">
<path fill-rule="evenodd" clip-rule="evenodd" d="M24.422 11.0742C22.8638 10.0328 21.032 9.477 19.1581 9.477V0C22.9059 0 26.5696 1.11163 29.6858 3.19433C32.8021 5.27701 35.2308 8.23723 36.6651 11.7006C38.0993 15.164 38.4746 18.975 37.7434 22.6517C37.0122 26.3284 35.2075 29.7057 32.5573 32.3565C29.9073 35.0073 26.5307 36.8125 22.8549 37.5438C19.1791 38.2751 15.369 37.8997 11.9064 36.4652C8.44391 35.0306 5.48442 32.6013 3.40223 29.4843C1.32004 26.3673 0.208679 22.7027 0.208679 18.954H9.68339C9.68339 20.8284 10.2391 22.6606 11.2802 24.2191C12.3212 25.7776 13.801 26.9923 15.5323 27.7096C17.2635 28.4269 19.1686 28.6146 21.0065 28.2488C22.8444 27.8832 24.5326 26.9806 25.8578 25.6553C27.1828 24.3298 28.0852 22.6412 28.4507 20.8029C28.8163 18.9645 28.6287 17.059 27.9116 15.3273C27.1945 13.5956 25.9801 12.1155 24.422 11.0742Z" fill="white"/>
<path fill-rule="evenodd" clip-rule="evenodd" d="M9.68338 5.00853e-06C9.68338 1.24454 9.43832 2.47689 8.96217 3.6267C8.48602 4.7765 7.78812 5.82123 6.90831 6.70126C6.0285 7.58128 4.98402 8.27935 3.83449 8.75561C2.68496 9.23187 1.45291 9.477 0.20868 9.477L0.208679 18.954C2.69715 18.954 5.16126 18.4638 7.46031 17.5112C9.75937 16.5587 11.8484 15.1625 13.6079 13.4025C15.3675 11.6425 16.7634 9.55301 17.7157 7.25339C18.668 4.95377 19.1581 2.48907 19.1581 0L9.68338 5.00853e-06Z" fill="white"/>
<path d="M119.229 13.6973H114.632V28.3035H119.229V13.6973Z" fill="white"/>
<path d="M115.144 10.9623C115.624 11.4432 116.225 11.6836 116.946 11.6836C117.667 11.6836 118.258 11.4432 118.718 10.9623C119.18 10.4614 119.41 9.8603 119.41 9.15905C119.41 8.43778 119.18 7.83667 118.718 7.35583C118.258 6.87494 117.667 6.63452 116.946 6.63452C116.225 6.63452 115.624 6.87494 115.144 7.35583C114.682 7.83667 114.452 8.43778 114.452 9.15905C114.452 9.8603 114.682 10.4614 115.144 10.9623Z" fill="white"/>
<path d="M48.6777 28.3024V7.08423H53.3951V24.155H62.7998V28.3024H48.6777Z" fill="white"/>
<path fill-rule="evenodd" clip-rule="evenodd" d="M71.2951 28.6341C69.7928 28.6341 68.4307 28.3036 67.2087 27.6424C66.0069 26.9612 65.0554 26.0395 64.3543 24.8774C63.6533 23.7153 63.3027 22.413 63.3027 20.9704C63.3027 19.5278 63.6533 18.2355 64.3543 17.0934C65.0554 15.9514 66.0069 15.0497 67.2087 14.3886C68.4106 13.7073 69.7728 13.3667 71.2951 13.3667C72.8175 13.3667 74.1796 13.6974 75.3814 14.3585C76.5833 15.0197 77.5348 15.9314 78.2359 17.0934C78.937 18.2355 79.2876 19.5278 79.2876 20.9704C79.2876 22.413 78.937 23.7153 78.2359 24.8774C77.5348 26.0395 76.5833 26.9612 75.3814 27.6424C74.1796 28.3036 72.8175 28.6341 71.2951 28.6341ZM71.2951 24.4567C71.9561 24.4567 72.537 24.3164 73.0379 24.0359C73.5386 23.7354 73.9192 23.3247 74.1796 22.8037C74.46 22.2628 74.6002 21.6516 74.6002 20.9704C74.6002 20.2892 74.46 19.6981 74.1796 19.1972C73.8991 18.6763 73.5086 18.2756 73.0077 17.9951C72.527 17.6945 71.9561 17.5443 71.2951 17.5443C70.6541 17.5443 70.0833 17.6945 69.5824 17.9951C69.0817 18.2756 68.6911 18.6763 68.4106 19.1972C68.1302 19.7182 67.99 20.3192 67.99 21.0004C67.99 21.6616 68.1302 22.2628 68.4106 22.8037C68.6911 23.3247 69.0817 23.7354 69.5824 24.0359C70.0833 24.3164 70.6541 24.4567 71.2951 24.4567Z" fill="white"/>
<path fill-rule="evenodd" clip-rule="evenodd" d="M82.9284 34.0129C84.1502 34.5738 85.5624 34.8543 87.165 34.8543C88.7274 34.8543 90.1196 34.5438 91.3414 33.9226C92.5634 33.3015 93.5248 32.4401 94.2259 31.3381C94.927 30.2361 95.278 28.9338 95.278 27.431V13.6964H90.7705V14.6777C90.4353 14.3955 90.0546 14.1586 89.6288 13.9668C88.8475 13.5861 87.9561 13.3958 86.9546 13.3958C85.6126 13.3958 84.4206 13.7164 83.3791 14.3575C82.3373 14.9786 81.5162 15.8402 80.9152 16.9421C80.3142 18.0241 80.0139 19.2463 80.0139 20.6088C80.0139 21.9512 80.3142 23.1734 80.9152 24.2753C81.5162 25.3773 82.3373 26.2489 83.3791 26.89C84.4206 27.5312 85.6126 27.8518 86.9546 27.8518C87.9361 27.8518 88.8275 27.6615 89.6288 27.2808C90.0169 27.0964 90.3674 26.8791 90.6804 26.6288V27.5513C90.6804 28.5731 90.3499 29.3645 89.6889 29.9255C89.0479 30.4866 88.1565 30.767 87.0147 30.767C86.0933 30.767 85.3021 30.6067 84.641 30.2861C84.0001 29.9656 83.4191 29.4947 82.8982 28.8736L80.0739 31.6987C80.775 32.7005 81.7265 33.4719 82.9284 34.0129ZM89.4785 23.3437C89.0178 23.6242 88.467 23.7644 87.8259 23.7644C87.185 23.7644 86.6241 23.6242 86.1433 23.3437C85.6826 23.0631 85.3221 22.6825 85.0617 22.2016C84.8012 21.7007 84.6711 21.1697 84.6711 20.6088C84.6711 20.0077 84.8012 19.4667 85.0617 18.9859C85.3221 18.505 85.6926 18.1243 86.1734 17.8438C86.6541 17.5633 87.205 17.423 87.8259 17.423C88.467 17.423 89.0178 17.5633 89.4785 17.8438C89.9593 18.1243 90.3198 18.505 90.5603 18.9859C90.8206 19.4667 90.9508 20.0077 90.9508 20.6088C90.9508 21.2098 90.8206 21.7508 90.5603 22.2316C90.3198 22.6925 89.9593 23.0631 89.4785 23.3437Z" fill="white"/>
<path fill-rule="evenodd" clip-rule="evenodd" d="M104.953 28.6341C103.45 28.6341 102.087 28.3036 100.866 27.6424C99.6639 26.9612 98.7126 26.0395 98.0115 24.8774C97.3103 23.7153 96.9598 22.413 96.9598 20.9704C96.9598 19.5278 97.3103 18.2355 98.0115 17.0934C98.7126 15.9514 99.6639 15.0497 100.866 14.3886C102.068 13.7073 103.43 13.3667 104.953 13.3667C106.474 13.3667 107.837 13.6974 109.038 14.3585C110.24 15.0197 111.192 15.9314 111.893 17.0934C112.594 18.2355 112.945 19.5278 112.945 20.9704C112.945 22.413 112.594 23.7153 111.893 24.8774C111.192 26.0395 110.24 26.9612 109.038 27.6424C107.837 28.3036 106.474 28.6341 104.953 28.6341ZM104.953 24.4567C105.613 24.4567 106.194 24.3164 106.695 24.0359C107.195 23.7354 107.576 23.3247 107.837 22.8037C108.117 22.2628 108.257 21.6516 108.257 20.9704C108.257 20.2892 108.117 19.6981 107.837 19.1972C107.556 18.6763 107.166 18.2756 106.665 17.9951C106.184 17.6945 105.613 17.5443 104.953 17.5443C104.311 17.5443 103.74 17.6945 103.24 17.9951C102.738 18.2756 102.348 18.6763 102.068 19.1972C101.787 19.7182 101.647 20.3192 101.647 21.0004C101.647 21.6616 101.787 22.2628 102.068 22.8037C102.348 23.3247 102.738 23.7354 103.24 24.0359C103.74 24.3164 104.311 24.4567 104.953 24.4567Z" fill="white"/>
<path fill-rule="evenodd" clip-rule="evenodd" d="M130.279 28.6031C129.298 28.6031 128.396 28.4128 127.575 28.0321C127.143 27.8318 126.752 27.5926 126.403 27.3145V34.4637H121.866V13.6964H126.463V14.7044C126.797 14.4316 127.167 14.1957 127.575 13.9969C128.396 13.5961 129.298 13.3958 130.279 13.3958C131.661 13.3958 132.883 13.7264 133.944 14.3876C135.026 15.0487 135.868 15.9504 136.468 17.0924C137.09 18.2345 137.4 19.5368 137.4 20.9994C137.4 22.4621 137.09 23.7644 136.468 24.9065C135.868 26.0486 135.026 26.9501 133.944 27.6113C132.883 28.2726 131.661 28.6031 130.279 28.6031ZM129.438 24.4557C130.099 24.4557 130.67 24.3054 131.15 24.0049C131.652 23.7044 132.042 23.2935 132.322 22.7727C132.603 22.2517 132.743 21.6606 132.743 20.9994C132.743 20.3182 132.603 19.7172 132.322 19.1962C132.042 18.6753 131.652 18.2746 131.15 17.9941C130.67 17.6935 130.109 17.5433 129.468 17.5433C128.827 17.5433 128.256 17.6935 127.756 17.9941C127.274 18.2746 126.894 18.6753 126.614 19.1962C126.333 19.7172 126.193 20.3182 126.193 20.9994C126.193 21.6606 126.323 22.2517 126.583 22.7727C126.864 23.2935 127.254 23.7044 127.756 24.0049C128.256 24.3054 128.817 24.4557 129.438 24.4557Z" fill="white"/>
<path d="M141.899 28.3334C142.741 28.5539 143.592 28.664 144.453 28.664C146.276 28.664 147.718 28.2433 148.78 27.4017C149.861 26.5603 150.402 25.4282 150.402 24.0057C150.402 23.084 150.232 22.3426 149.891 21.7817C149.551 21.2007 149.111 20.7398 148.57 20.3992C148.029 20.0586 147.457 19.788 146.857 19.5877C146.256 19.3873 145.684 19.217 145.144 19.0768C144.603 18.9365 144.163 18.7762 143.822 18.5959C143.482 18.4156 143.311 18.1751 143.311 17.8746C143.311 17.5941 143.442 17.3837 143.701 17.2434C143.962 17.0832 144.352 17.0031 144.873 17.0031C145.414 17.0031 145.965 17.1132 146.526 17.3337C147.107 17.554 147.628 17.9348 148.088 18.4757L150.702 15.831C150.042 14.9894 149.181 14.3583 148.119 13.9376C147.077 13.4968 145.936 13.2764 144.693 13.2764C143.512 13.2764 142.48 13.4767 141.599 13.8774C140.717 14.2782 140.036 14.8292 139.555 15.5304C139.075 16.2116 138.834 17.0231 138.834 17.9648C138.834 18.8464 139.005 19.5777 139.345 20.1588C139.685 20.7197 140.127 21.1606 140.667 21.4811C141.208 21.8017 141.779 22.0522 142.38 22.2324C142.98 22.4128 143.552 22.5831 144.093 22.7434C144.633 22.8837 145.074 23.054 145.414 23.2543C145.775 23.4347 145.955 23.7051 145.955 24.0657C145.955 24.3463 145.805 24.5666 145.504 24.7269C145.224 24.8872 144.814 24.9674 144.273 24.9674C143.491 24.9674 142.77 24.8271 142.11 24.5466C141.448 24.2461 140.877 23.8354 140.397 23.3144L137.783 25.9591C138.284 26.5001 138.885 26.9811 139.586 27.4017C140.307 27.8024 141.078 28.113 141.899 28.3334Z" fill="white"/>
<path d="M158.785 28.6341C157.444 28.6341 156.252 28.3636 155.21 27.8226C154.188 27.2616 153.387 26.5002 152.807 25.5385C152.225 24.5568 151.935 23.4348 151.935 22.1724V13.6973H156.532V22.1124C156.532 22.6132 156.612 23.0441 156.773 23.4046C156.953 23.7653 157.213 24.0459 157.553 24.2462C157.895 24.4466 158.305 24.5467 158.785 24.5467C159.466 24.5467 160.007 24.3363 160.408 23.9156C160.809 23.4748 161.009 22.8737 161.009 22.1124V13.6973H165.606V22.1424C165.606 23.4247 165.316 24.5568 164.734 25.5385C164.154 26.5002 163.353 27.2616 162.331 27.8226C161.309 28.3636 160.128 28.6341 158.785 28.6341Z" fill="white"/>
<path d="M172.488 13.6964H167.891V28.3026H172.488V19.7672C172.488 19.2664 172.589 18.8456 172.789 18.505C173.009 18.1644 173.3 17.9039 173.66 17.7236C174.021 17.5232 174.432 17.423 174.892 17.423C175.553 17.423 176.104 17.6334 176.544 18.0542C177.006 18.4549 177.236 19.0259 177.236 19.7672V28.3026H181.833V19.7672C181.833 19.2664 181.934 18.8456 182.134 18.505C182.354 18.1644 182.644 17.9039 183.005 17.7236C183.365 17.5232 183.777 17.423 184.237 17.423C184.898 17.423 185.449 17.6334 185.889 18.0542C186.35 18.4549 186.58 19.0259 186.58 19.7672V28.3026H191.178V19.2563C191.178 18.0342 190.918 16.9923 190.397 16.1307C189.895 15.2491 189.205 14.5779 188.323 14.1171C187.462 13.6362 186.47 13.3958 185.348 13.3958C184.207 13.3958 183.175 13.6462 182.254 14.1472C181.655 14.4663 181.132 14.8781 180.684 15.3827C180.266 14.8549 179.758 14.4231 179.159 14.087C178.358 13.6262 177.446 13.3958 176.425 13.3958C175.343 13.3958 174.372 13.6262 173.511 14.087C173.135 14.2787 172.795 14.5084 172.488 14.7759V13.6964Z" fill="white"/>
</g>
<defs>
<clipPath id="clip0_17_1167">
<rect width="191.389" height="37.908" fill="white" transform="translate(0.208679)"/>
</clipPath>
</defs>
</svg>
