<svg width="153" height="33" viewBox="0 0 153 33" fill="none" xmlns="http://www.w3.org/2000/svg">
<g clip-path="url(#clip0_17_1134)">
<path fill-rule="evenodd" clip-rule="evenodd" d="M9.04038 2.25366V36.0588H0V2.25366H9.04038Z" fill="white"/>
<path fill-rule="evenodd" clip-rule="evenodd" d="M13.5605 2.25366H32.7714C39.0125 2.25366 44.0719 7.29869 44.0719 13.522C44.0719 19.7454 39.0125 24.7904 32.7714 24.7904H22.6009V36.0588H13.5605V2.25366ZM22.6009 15.7757H32.7714C34.0196 15.7757 35.0315 14.7667 35.0315 13.522C35.0315 12.2774 34.0196 11.2684 32.7714 11.2684H22.6009V15.7757Z" fill="white"/>
<path fill-rule="evenodd" clip-rule="evenodd" d="M77.9733 2.25366V19.7197C77.9733 23.7648 81.2619 27.0441 85.3186 27.0441C89.3754 27.0441 92.6641 23.7648 92.6641 19.7197V2.25366H101.705V19.7197C101.705 28.7436 94.3684 36.0588 85.3186 36.0588C76.269 36.0588 68.933 28.7436 68.933 19.7197V2.25366H77.9733Z" fill="white"/>
<path fill-rule="evenodd" clip-rule="evenodd" d="M47.462 18.0294C47.462 9.31668 54.5451 2.25366 63.2827 2.25366H65.5428V11.2684H63.2827C59.538 11.2684 56.5024 14.2954 56.5024 18.0294V19.1562C56.5024 28.4912 48.9133 36.0588 39.5516 36.0588H38.4216V27.0441H39.5516C43.9204 27.0441 47.462 23.5126 47.462 19.1562V18.0294Z" fill="white"/>
<path d="M152.557 3.38051C152.557 5.24752 151.039 6.76103 149.166 6.76103C147.294 6.76103 145.776 5.24752 145.776 3.38051C145.776 1.51351 147.294 0 149.166 0C151.039 0 152.557 1.51351 152.557 3.38051Z" fill="white"/>
<path d="M111.411 36.0581L115.725 18.045L118.933 28.8818C120.845 35.3452 130.026 35.3452 131.939 28.8818L135.145 18.045L139.459 36.0581H148.754L141.971 7.73347C140.357 0.997636 130.839 0.748236 128.872 7.39039L125.436 19.0053L121.998 7.3904C120.033 0.748275 110.513 0.9976 108.9 7.73346L102.117 36.0581H111.411Z" fill="white"/>
</g>
<defs>
<clipPath id="clip0_17_1134">
<rect width="152.557" height="36.0588" fill="white"/>
</clipPath>
</defs>
</svg>
