<svg width="39" height="33" viewBox="0 0 39 33" fill="none" xmlns="http://www.w3.org/2000/svg">
<path fill-rule="evenodd" clip-rule="evenodd" d="M24.8169 11.0742C23.2588 10.0328 21.427 9.477 19.5531 9.477V0C23.3009 0 26.9646 1.11163 30.0808 3.19433C33.197 5.27701 35.6258 8.23723 37.06 11.7006C38.4942 15.164 38.8695 18.975 38.1384 22.6517C37.4072 26.3284 35.6025 29.7057 32.9523 32.3565C30.3022 35.0073 26.9257 36.8125 23.2499 37.5438C19.5741 38.2751 15.7639 37.8997 12.3014 36.4652C8.83887 35.0306 5.87937 32.6013 3.79719 29.4843C1.715 26.3673 0.603638 22.7027 0.603638 18.954H10.0783C10.0783 20.8284 10.634 22.6606 11.6751 24.2191C12.7162 25.7776 14.196 26.9923 15.9273 27.7096C17.6585 28.4269 19.5636 28.6146 21.4015 28.2488C23.2394 27.8832 24.9276 26.9806 26.2527 25.6553C27.5778 24.3298 28.4801 22.6412 28.8457 20.8029C29.2113 18.9645 29.0237 17.059 28.3066 15.3273C27.5894 13.5956 26.375 12.1155 24.8169 11.0742Z" fill="white"/>
</svg>
